{"glyphs":{":":{"x_min":0,"x_max":300,"ha":300,"o":"m 112 -12 b 150 -12 186 16 186 65 b 186 95 162 122 124 122 b 86 122 50 94 50 45 b 50 15 74 -12 112 -12 z m 186 398 b 224 398 260 426 260 475 b 260 505 236 532 198 532 b 160 532 124 504 124 455 b 124 425 148 398 186 398 z"},"$":{"x_min":0,"x_max":600,"ha":600,"o":"m 447 795 l 359 795 l 348 682 b 227 677 144 610 144 513 b 144 432 181 388 277 333 b 381 274 407 241 407 191 b 407 131 355 93 276 93 b 208 93 157 118 115 157 l 58 86 b 105 48 159 24 229 18 l 200 -95 l 288 -95 l 299 18 b 416 28 498 91 498 200 b 498 283 462 338 344 402 b 259 448 231 480 231 523 b 231 573 282 608 355 608 b 419 608 462 586 506 559 l 552 631 b 512 654 468 671 418 679 z"},"?":{"x_min":0,"x_max":498,"ha":498,"o":"m 398 584 b 398 461 152 465 152 262 b 152 243 154 223 156 207 l 229 207 l 238 269 b 259 415 496 416 496 592 b 496 683 417 752 311 752 b 213 752 145 709 87 643 l 147 583 b 189 635 240 670 298 670 b 357 670 398 633 398 584 z m 178 -12 b 216 -12 252 16 252 65 b 252 95 228 122 190 122 b 152 122 116 94 116 45 b 116 15 140 -12 178 -12 z"},"<":{"x_min":0,"x_max":600,"ha":600,"o":"m 473 572 l 121 371 l 111 314 l 395 114 l 453 178 l 222 337 l 509 502 z"},"'":{"x_min":0,"x_max":150,"ha":150,"o":"m 103 700 l 72 478 l 143 478 l 190 700 z"},"=":{"x_min":0,"x_max":600,"ha":600,"o":"m 511 395 l 525 474 l 130 474 l 116 395 z m 480 213 l 494 292 l 99 292 l 85 213 z"},"a":{"x_min":0,"x_max":592,"ha":592,"o":"m 37 205 b 37 71 128 -12 226 -12 b 302 -12 359 40 396 104 b 396 29 435 -5 507 -5 l 538 65 b 503 65 480 79 480 116 b 480 125 481 134 482 141 l 545 496 b 506 512 446 532 368 532 b 175 532 37 398 37 205 z m 419 288 b 397 159 331 68 250 68 b 189 68 129 120 129 216 b 129 354 219 456 357 456 b 395 456 421 451 446 443 z"},"L":{"x_min":0,"x_max":510,"ha":510,"o":"m 42 0 l 458 0 l 473 85 l 152 85 l 260 700 l 165 700 z"},"3":{"x_min":0,"x_max":600,"ha":600,"o":"m 212 328 b 330 328 387 269 387 196 b 387 113 320 68 229 68 b 169 68 122 89 89 117 l 36 46 b 82 10 153 -12 229 -12 b 377 -12 484 71 484 200 b 484 278 437 337 353 367 b 458 399 514 454 514 548 b 514 634 442 712 320 712 b 242 712 183 687 136 654 l 171 586 b 206 611 248 634 309 634 b 374 634 421 594 421 533 b 421 451 336 401 205 401 l 173 401 l 161 328 z"},";":{"x_min":0,"x_max":300,"ha":300,"o":"m 82 90 b 48 1 5 -64 -60 -132 l -13 -160 b 74 -113 139 -37 168 65 z m 184 398 b 222 398 258 426 258 475 b 258 505 234 532 196 532 b 158 532 122 504 122 455 b 122 425 146 398 184 398 z"},"J":{"x_min":0,"x_max":411,"ha":411,"o":"m 111 -12 b 179 -12 286 13 318 190 l 409 700 l 314 700 l 223 194 b 206 102 163 70 115 70 b 70 70 36 96 10 129 l -48 59 b -10 17 44 -12 111 -12 z"},"V":{"x_min":0,"x_max":622,"ha":622,"o":"m 213 0 l 322 0 l 685 662 l 601 708 l 283 104 l 162 711 l 67 691 z"},"\"":{"x_min":0,"x_max":300,"ha":300,"o":"m 96 700 l 65 477 l 136 477 l 183 700 z m 258 700 l 227 477 l 298 477 l 345 700 z"},"7":{"x_min":0,"x_max":600,"ha":600,"o":"m 229 0 b 287 314 356 441 580 628 l 592 700 l 149 700 l 135 618 l 468 618 b 272 459 185 337 128 0 z"},"S":{"x_min":0,"x_max":539,"ha":539,"o":"m 386 177 b 386 112 330 71 244 71 b 171 71 109 98 64 139 l 2 62 b 60 15 138 -12 234 -12 b 381 -12 483 63 483 186 b 483 276 450 337 319 407 b 227 456 199 488 199 538 b 199 592 251 630 330 630 b 400 630 450 607 498 577 l 547 655 b 488 689 422 712 338 712 b 199 712 104 639 104 528 b 104 439 143 389 247 331 b 358 269 386 232 386 177 z"},"}":{"x_min":0,"x_max":450,"ha":450,"o":"m 374 352 b 322 360 300 382 300 438 b 300 497 313 546 313 603 b 313 702 252 743 160 758 l 150 701 b 204 687 229 664 229 601 b 229 540 212 488 212 432 b 212 369 242 336 300 320 b 208 295 172 266 147 114 b 127 -10 90 -42 16 -61 l 6 -118 b 149 -99 205 -48 237 118 b 262 250 295 271 363 288 z"},"Z":{"x_min":0,"x_max":563,"ha":563,"o":"m -8 0 l 487 0 l 502 84 l 122 84 l 564 628 l 576 700 l 117 700 l 103 618 l 444 618 l 5 74 z"},"x":{"x_min":0,"x_max":495,"ha":495,"o":"m -18 51 l 41 -6 l 242 207 l 384 -9 l 459 46 l 299 264 l 498 467 l 436 525 l 254 325 l 122 531 l 44 473 l 196 269 z"},")":{"x_min":0,"x_max":300,"ha":300,"o":"m 41 -123 b 171 51 260 233 260 441 b 260 544 233 661 193 763 l 138 739 b 157 659 168 570 168 475 b 168 265 100 90 -10 -89 z"},"&":{"x_min":0,"x_max":761,"ha":761,"o":"m 645 327 b 696 327 731 339 751 370 l 726 434 b 706 411 682 400 637 400 l 379 400 b 290 400 229 456 229 517 b 229 589 290 632 362 632 b 419 632 466 607 500 580 l 550 653 b 500 687 441 712 362 712 b 240 712 139 639 139 526 b 139 461 167 416 235 375 b 116 335 60 260 60 166 b 60 63 156 -12 279 -12 b 453 -12 583 101 607 327 z m 297 70 b 218 70 155 117 155 185 b 155 264 235 327 365 327 l 533 327 b 513 168 426 70 297 70 z"},"_":{"x_min":0,"x_max":600,"ha":600,"o":"m -60 -115 l 539 -115 l 550 -55 l -50 -55 z"},"v":{"x_min":0,"x_max":509,"ha":509,"o":"m 162 0 l 255 0 l 547 487 l 474 530 l 225 100 l 122 530 l 37 508 z"},"O":{"x_min":0,"x_max":738,"ha":738,"o":"m 416 630 b 549 630 619 527 619 399 b 619 230 518 70 347 70 b 214 70 144 173 144 301 b 144 470 245 630 416 630 z m 339 -12 b 578 -12 716 192 716 405 b 716 577 612 712 424 712 b 185 712 47 508 47 295 b 47 123 151 -12 339 -12 z"},"(":{"x_min":0,"x_max":300,"ha":300,"o":"m 330 729 l 279 763 b 149 589 60 407 60 199 b 60 96 87 -21 127 -123 l 182 -99 b 163 -19 152 70 152 165 b 152 375 220 550 330 729 z"},"C":{"x_min":0,"x_max":560,"ha":560,"o":"m 406 629 b 469 629 510 610 550 585 l 593 663 b 553 686 493 712 414 712 b 197 712 47 526 47 286 b 47 96 156 -12 320 -12 b 396 -12 455 6 504 29 l 488 115 b 441 91 395 71 333 71 b 224 71 145 149 145 293 b 145 488 260 629 406 629 z"},"W":{"x_min":0,"x_max":941,"ha":941,"o":"m 158 0 l 276 0 l 521 526 l 578 0 l 696 0 l 1004 665 l 920 704 l 653 101 l 597 627 l 478 627 l 234 101 l 180 707 l 82 697 z"},"A":{"x_min":0,"x_max":663,"ha":663,"o":"m 48 -8 l 159 190 l 483 190 l 525 -10 l 616 11 l 463 700 l 356 700 l -28 37 z m 395 607 l 466 270 l 204 270 z"},"f":{"x_min":0,"x_max":372,"ha":372,"o":"m 258 584 b 269 644 306 672 355 672 b 399 672 429 656 460 640 l 495 716 b 458 736 410 752 356 752 b 257 752 191 703 168 581 l 153 501 l 73 501 l 59 423 l 139 423 l 51 -74 b 41 -130 13 -154 -23 -154 b -53 -154 -78 -142 -97 -124 l -133 -198 b -105 -219 -68 -232 -24 -232 b 59 -232 120 -190 141 -72 l 229 423 l 383 423 l 397 501 l 243 501 z"},"Q":{"x_min":0,"x_max":746,"ha":746,"o":"m 334 -12 b 418 -12 483 13 545 65 b 613 1 637 -12 680 -12 l 714 69 b 679 69 647 84 603 118 b 665 193 706 281 706 405 b 706 575 605 712 419 712 b 180 712 47 508 47 295 b 47 124 148 -12 334 -12 z m 415 187 l 488 118 b 446 87 401 70 342 70 b 210 70 144 175 144 301 b 144 470 240 630 411 630 b 542 630 609 526 609 399 b 609 314 585 229 541 170 l 471 245 z"},"w":{"x_min":0,"x_max":790,"ha":790,"o":"m 229 0 l 418 382 l 470 0 l 569 0 l 818 487 l 744 525 l 534 100 l 482 483 l 387 483 l 198 100 l 139 525 l 52 513 l 130 0 z"},"-":{"x_min":0,"x_max":600,"ha":600,"o":"m 467 302 l 482 384 l 142 384 l 127 302 z"},"E":{"x_min":0,"x_max":542,"ha":542,"o":"m 42 0 l 457 0 l 471 82 l 151 82 l 194 325 l 469 325 l 483 405 l 208 405 l 245 618 l 566 618 l 580 700 l 165 700 z"},"s":{"x_min":0,"x_max":444,"ha":444,"o":"m 437 483 b 392 510 332 532 258 532 b 146 532 68 474 68 394 b 68 324 96 283 196 233 b 279 191 301 167 301 132 b 301 95 260 66 193 66 b 134 66 84 89 48 118 l -3 44 b 42 11 104 -12 185 -12 b 302 -12 394 40 394 146 b 394 217 351 260 260 306 b 177 348 157 368 157 399 b 157 433 193 457 256 457 b 316 457 362 434 401 407 z"},">":{"x_min":0,"x_max":600,"ha":600,"o":"m 127 114 l 479 315 l 489 372 l 205 572 l 147 508 l 378 349 l 91 184 z"},"l":{"x_min":0,"x_max":328,"ha":328,"o":"m 244 740 l 154 740 l 56 178 b 53 159 52 146 52 127 b 52 33 117 -12 197 -12 b 234 -12 267 -4 291 8 l 282 81 b 263 72 240 66 217 66 b 171 66 142 92 142 138 b 142 149 143 162 146 180 z"},"8":{"x_min":0,"x_max":600,"ha":600,"o":"m 234 384 b 106 342 41 274 41 169 b 41 63 139 -12 270 -12 b 419 -12 536 70 536 201 b 536 279 493 331 403 374 b 504 411 558 461 558 549 b 558 633 480 712 358 712 b 238 712 139 635 139 531 b 139 467 170 424 234 384 z m 280 68 b 197 68 136 118 136 183 b 136 269 219 320 306 339 b 392 307 441 255 441 197 b 441 117 364 68 280 68 z m 353 638 b 422 638 468 592 468 538 b 468 479 408 432 335 411 b 275 440 229 481 229 532 b 229 602 291 638 353 638 z"},"\\":{"x_min":0,"x_max":450,"ha":450,"o":"m 351 -59 l 211 773 l 138 761 l 278 -71 z"},"e":{"x_min":0,"x_max":518,"ha":518,"o":"m 261 -12 b 336 -12 399 8 439 27 l 431 107 b 395 90 342 68 276 68 b 194 68 139 116 129 204 b 156 200 193 196 229 196 b 344 196 501 230 501 378 b 501 458 433 532 318 532 b 147 532 37 391 37 225 b 37 78 129 -12 261 -12 z m 311 456 b 371 456 411 418 411 371 b 411 295 341 267 229 267 b 191 267 162 270 131 276 b 146 379 217 456 311 456 z"},"b":{"x_min":0,"x_max":573,"ha":573,"o":"m 541 340 b 541 454 469 532 374 532 b 298 532 235 486 197 415 l 254 740 l 164 740 l 37 18 b 72 1 125 -12 187 -12 b 393 -12 541 141 541 340 z m 351 454 b 409 454 449 405 449 328 b 449 182 345 68 208 68 b 181 68 158 71 137 76 l 157 187 b 193 387 278 454 351 454 z"},"%":{"x_min":0,"x_max":900,"ha":900,"o":"m 212 -39 l 775 700 l 720 740 l 157 1 z m 415 547 b 415 648 364 707 271 707 b 108 707 57 542 57 431 b 57 332 110 270 204 270 b 364 270 415 439 415 547 z m 210 337 b 165 337 141 368 141 427 b 141 497 164 641 262 641 b 309 641 331 609 331 551 b 331 482 309 337 210 337 z m 873 270 b 873 371 822 430 729 430 b 566 430 515 265 515 154 b 515 55 568 -7 662 -7 b 822 -7 873 162 873 270 z m 668 60 b 623 60 599 91 599 150 b 599 220 622 364 720 364 b 767 364 789 332 789 274 b 789 205 767 60 668 60 z"},"m":{"x_min":0,"x_max":913,"ha":913,"o":"m 690 453 b 738 453 771 420 771 368 b 771 354 770 343 764 311 l 707 0 l 797 0 l 855 326 b 859 351 861 370 861 389 b 861 469 804 532 715 532 b 638 532 569 483 524 400 b 517 476 463 532 381 532 b 307 532 233 480 193 400 l 215 520 l 128 520 l 37 0 l 127 0 l 163 207 b 193 377 285 453 355 453 b 403 453 436 420 436 368 b 436 354 435 343 429 311 l 372 0 l 462 0 l 500 215 b 529 380 623 453 690 453 z"},"#":{"x_min":0,"x_max":750,"ha":750,"o":"m 174 0 l 217 124 l 413 124 l 370 0 l 450 0 l 493 124 l 586 124 l 610 197 l 519 197 l 607 447 l 700 447 l 724 520 l 632 520 l 676 644 l 596 644 l 552 520 l 356 520 l 400 644 l 320 644 l 276 520 l 184 520 l 160 447 l 251 447 l 163 197 l 71 197 l 47 124 l 137 124 l 94 0 z m 331 447 l 527 447 l 439 197 l 243 197 z"},",":{"x_min":0,"x_max":300,"ha":300,"o":"m 107 90 b 73 1 30 -64 -35 -132 l 12 -160 b 99 -113 164 -37 193 65 z"},"n":{"x_min":0,"x_max":589,"ha":589,"o":"m 364 453 b 413 453 446 420 446 368 b 446 354 445 343 439 311 l 384 0 l 474 0 l 531 326 b 535 351 537 370 537 389 b 537 469 478 532 387 532 b 309 532 234 480 193 400 l 215 520 l 128 520 l 37 0 l 127 0 l 163 207 b 193 377 294 453 364 453 z"},"h":{"x_min":0,"x_max":589,"ha":589,"o":"m 446 368 b 446 354 445 343 439 311 l 384 0 l 474 0 l 531 326 b 535 351 537 370 537 389 b 537 469 479 532 387 532 b 312 532 240 484 199 411 l 257 740 l 167 740 l 37 0 l 127 0 l 164 213 b 193 380 294 453 365 453 b 413 453 446 419 446 368 z"},"z":{"x_min":0,"x_max":476,"ha":476,"o":"m 75 442 l 343 442 l 10 71 l -3 0 l 399 0 l 414 80 l 126 80 l 462 451 l 474 520 l 88 520 z"},"B":{"x_min":0,"x_max":617,"ha":617,"o":"m 42 20 b 89 5 159 -12 254 -12 b 418 -12 563 58 563 203 b 563 286 509 336 435 364 b 534 393 585 448 585 539 b 585 628 508 712 347 712 b 274 712 221 704 160 692 z m 277 324 b 412 324 466 267 466 200 b 466 123 392 67 261 67 b 220 67 182 72 148 81 l 190 324 z m 343 637 b 441 637 492 588 492 526 b 492 458 430 398 301 398 l 203 398 l 244 629 b 271 634 302 637 343 637 z"},"K":{"x_min":0,"x_max":597,"ha":597,"o":"m 285 356 l 595 634 l 537 698 l 205 389 l 260 700 l 165 700 l 42 0 l 137 0 l 194 323 l 390 73 b 437 14 473 -7 532 -7 l 567 74 b 523 74 498 88 443 157 z"},"R":{"x_min":0,"x_max":621,"ha":621,"o":"m 42 0 l 137 0 l 191 305 b 459 305 342 -7 549 -7 l 584 75 b 451 75 527 259 364 333 b 490 352 575 409 575 530 b 575 628 493 708 341 708 b 270 708 224 701 164 690 z m 335 629 b 427 629 481 583 481 518 b 481 437 405 385 288 385 l 205 385 l 247 621 b 272 626 300 629 335 629 z"},"T":{"x_min":0,"x_max":554,"ha":554,"o":"m 77 616 l 292 616 l 184 0 l 279 0 l 387 616 l 602 616 l 617 700 l 92 700 z"},"P":{"x_min":0,"x_max":560,"ha":560,"o":"m 42 0 l 137 0 l 183 265 b 210 258 242 255 274 255 b 452 255 583 341 583 505 b 583 611 503 708 341 708 b 270 708 214 700 163 690 z m 331 629 b 432 629 490 573 490 494 b 490 401 430 334 287 334 b 256 334 223 337 197 345 l 246 622 b 269 626 295 629 331 629 z"},"|":{"x_min":0,"x_max":300,"ha":300,"o":"m 123 -100 l 275 770 l 197 770 l 45 -100 z"},"t":{"x_min":0,"x_max":391,"ha":391,"o":"m 42 423 l 131 423 l 90 184 b 87 164 86 150 86 135 b 86 31 161 -12 236 -12 b 282 -12 322 1 347 16 l 336 94 b 314 82 289 68 251 68 b 205 68 175 95 175 142 b 175 153 176 165 179 180 l 221 423 l 366 423 l 379 501 l 235 501 l 264 665 l 195 665 l 147 501 l 55 501 z"},"M":{"x_min":0,"x_max":831,"ha":831,"o":"m 601 0 l 696 0 l 819 700 l 676 700 l 412 254 l 294 700 l 165 700 l 42 0 l 132 0 l 235 589 l 352 158 l 445 158 l 704 585 z"},"g":{"x_min":0,"x_max":577,"ha":577,"o":"m 367 532 b 178 532 37 400 37 207 b 37 73 131 0 227 0 b 296 0 352 47 390 107 l 373 9 b 352 -110 298 -154 231 -154 b 178 -154 135 -132 102 -87 l 32 -139 b 72 -189 134 -232 225 -232 b 318 -232 426 -189 458 -6 l 545 496 b 506 512 446 532 367 532 z m 129 217 b 129 352 223 456 357 456 b 394 456 421 451 446 443 l 420 298 b 396 165 326 80 251 80 b 189 80 129 127 129 217 z"},"j":{"x_min":0,"x_max":264,"ha":264,"o":"m 31 -74 b 21 -130 -7 -154 -43 -154 b -73 -154 -98 -142 -117 -124 l -153 -198 b -125 -219 -88 -232 -44 -232 b 39 -232 101 -190 122 -72 l 226 520 l 136 520 z m 202 609 b 242 609 272 638 272 680 b 272 709 252 735 215 735 b 175 735 145 706 145 664 b 145 635 165 609 202 609 z"},"i":{"x_min":0,"x_max":255,"ha":255,"o":"m 218 520 l 128 520 l 37 0 l 127 0 z m 194 609 b 234 609 264 638 264 680 b 264 709 244 735 207 735 b 167 735 137 706 137 664 b 137 635 157 609 194 609 z"},"y":{"x_min":0,"x_max":561,"ha":561,"o":"m 225 80 b 179 80 140 109 140 169 b 140 181 141 191 143 203 l 198 520 l 108 520 l 54 201 b 51 180 50 160 50 146 b 50 56 116 0 195 0 b 275 0 337 51 377 115 l 358 9 b 337 -110 283 -154 216 -154 b 163 -154 120 -132 87 -87 l 17 -139 b 57 -189 119 -232 210 -232 b 303 -232 411 -189 443 -6 l 534 520 l 444 520 l 403 284 b 380 154 300 80 225 80 z"},"@":{"x_min":0,"x_max":1050,"ha":1050,"o":"m 724 52 b 695 52 677 67 677 95 b 677 101 678 110 679 116 l 738 448 b 705 462 653 480 584 480 b 412 480 292 360 292 186 b 292 58 375 0 454 0 b 518 0 572 46 603 102 l 603 93 b 603 25 641 -12 712 -12 b 857 -12 979 139 979 348 b 979 550 832 712 589 712 b 292 712 72 491 72 166 b 72 -86 240 -232 470 -232 b 586 -232 679 -201 747 -168 l 731 -90 b 659 -123 580 -152 481 -152 b 299 -152 164 -30 164 171 b 164 425 339 632 585 632 b 763 632 887 506 887 336 b 887 168 800 52 724 52 z m 478 70 b 422 70 373 116 373 197 b 373 327 457 412 577 412 b 611 412 631 409 650 403 l 619 232 b 602 136 540 70 478 70 z"},".":{"x_min":0,"x_max":300,"ha":300,"o":"m 119 -12 b 157 -12 193 16 193 65 b 193 95 169 122 131 122 b 93 122 57 94 57 45 b 57 15 81 -12 119 -12 z"},"p":{"x_min":0,"x_max":602,"ha":602,"o":"m 65 450 b 96 450 114 436 114 403 b 114 394 113 386 111 375 l 7 -220 l 97 -220 l 148 71 b 179 24 238 -12 302 -12 b 432 -12 560 118 560 316 b 560 443 491 532 383 532 b 301 532 239 481 201 409 l 201 430 b 201 489 167 520 97 520 z m 294 68 b 240 68 191 98 162 152 l 180 253 b 202 374 275 454 356 454 b 422 454 468 398 468 307 b 468 166 388 68 294 68 z"},"X":{"x_min":0,"x_max":621,"ha":621,"o":"m -8 56 l 62 -7 l 316 288 l 490 -10 l 575 41 l 381 353 l 644 643 l 574 706 l 334 425 l 176 709 l 91 658 l 269 362 z"},"*":{"x_min":0,"x_max":450,"ha":450,"o":"m 125 663 l 101 587 l 218 557 l 142 465 l 205 418 l 271 522 l 335 419 l 399 465 l 322 559 l 438 588 l 415 663 l 301 619 l 310 740 l 230 740 l 239 617 z"},"Y":{"x_min":0,"x_max":562,"ha":562,"o":"m 131 70 b 98 70 71 87 50 111 l -8 43 b 22 10 72 -12 124 -12 b 214 -12 268 33 329 140 l 630 665 l 551 708 l 336 318 l 235 613 b 213 678 181 705 110 705 l 70 626 b 110 626 132 613 145 577 l 277 224 l 234 146 b 205 95 171 70 131 70 z"},"c":{"x_min":0,"x_max":460,"ha":460,"o":"m 468 492 b 430 514 382 532 320 532 b 145 532 37 388 37 221 b 37 81 126 -12 256 -12 b 322 -12 369 4 402 19 l 391 98 b 359 82 322 68 271 68 b 184 68 129 132 129 233 b 129 356 202 452 313 452 b 359 452 397 436 431 415 z"},"!":{"x_min":0,"x_max":314,"ha":314,"o":"m 143 480 l 108 207 l 182 207 l 243 480 l 287 729 l 187 729 z m 114 -12 b 152 -12 188 16 188 65 b 188 95 164 122 126 122 b 88 122 52 94 52 45 b 52 15 76 -12 114 -12 z"},"/":{"x_min":0,"x_max":450,"ha":450,"o":"m 70 -71 l 488 737 l 418 773 l 0 -35 z"},"[":{"x_min":0,"x_max":300,"ha":300,"o":"m 208 -100 l 222 -25 l 126 -25 l 249 665 l 343 665 l 357 740 l 183 740 l 34 -100 z"},"6":{"x_min":0,"x_max":600,"ha":600,"o":"m 492 620 b 502 620 518 619 529 618 l 543 700 b 530 701 507 702 495 702 b 206 702 65 462 65 226 b 65 74 154 -12 281 -12 b 431 -12 530 103 530 250 b 530 363 451 443 343 443 b 275 443 220 416 182 373 b 229 536 334 620 492 620 z m 318 368 b 386 368 437 317 437 241 b 437 145 371 68 285 68 b 211 68 158 131 158 228 b 158 249 159 265 161 281 b 209 341 257 368 318 368 z"},"r":{"x_min":0,"x_max":405,"ha":405,"o":"m 52 0 l 142 0 l 171 169 b 206 374 280 441 353 441 b 376 441 392 438 408 432 l 448 520 b 433 526 411 532 381 532 b 304 532 241 494 203 399 l 203 419 b 203 486 164 520 93 520 l 62 450 b 97 450 120 436 120 399 b 120 390 119 381 118 374 z"},"2":{"x_min":0,"x_max":600,"ha":600,"o":"m 539 543 b 539 641 462 712 349 712 b 266 712 204 683 150 639 l 192 571 b 237 609 281 632 338 632 b 397 632 442 595 442 536 b 442 381 61 315 61 37 b 61 25 62 10 64 0 l 466 0 l 480 82 l 162 82 b 200 281 539 333 539 543 z"},"{":{"x_min":0,"x_max":450,"ha":450,"o":"m 164 320 b 256 345 292 374 317 526 b 337 650 374 682 448 701 l 458 758 b 315 739 258 688 226 522 b 201 390 169 369 101 352 l 90 288 b 142 280 164 258 164 202 b 164 143 151 94 151 37 b 151 -62 212 -103 304 -118 l 314 -61 b 260 -47 235 -24 235 39 b 235 100 252 152 252 208 b 252 271 222 304 164 320 z"},"9":{"x_min":0,"x_max":600,"ha":600,"o":"m 246 70 b 196 70 158 92 125 130 l 56 66 b 99 20 162 -12 239 -12 b 456 -12 545 240 545 490 b 545 562 526 612 490 651 b 453 691 403 712 337 712 b 196 712 91 603 91 466 b 91 343 180 270 284 270 b 338 270 392 293 437 335 b 407 151 327 70 246 70 z m 452 478 b 452 455 451 439 449 415 b 408 369 354 344 303 344 b 231 344 184 395 184 472 b 184 564 248 632 329 632 b 403 632 452 578 452 478 z"}," ":{"x_min":0,"x_max":300,"ha":300,"o":""},"I":{"x_min":0,"x_max":272,"ha":272,"o":"m 137 0 l 260 700 l 165 700 l 42 0 z"},"H":{"x_min":0,"x_max":701,"ha":701,"o":"m 471 0 l 566 0 l 689 700 l 594 700 l 541 401 l 207 401 l 260 700 l 165 700 l 42 0 l 137 0 l 193 319 l 527 319 z"},"4":{"x_min":0,"x_max":600,"ha":600,"o":"m 519 151 l 533 231 l 447 231 l 483 430 l 395 430 l 359 231 l 164 231 l 429 674 l 352 707 l 59 221 l 47 151 l 345 151 l 319 0 l 407 0 l 433 151 z"},"~":{"x_min":0,"x_max":600,"ha":600,"o":"m 524 322 l 499 388 b 474 369 437 333 385 333 b 323 333 276 390 205 390 b 155 390 110 357 76 328 l 100 262 b 128 284 164 310 204 310 b 266 310 312 253 384 253 b 446 253 499 299 524 322 z"},"D":{"x_min":0,"x_max":663,"ha":663,"o":"m 42 20 b 96 0 162 -12 247 -12 b 490 -12 641 162 641 403 b 641 565 554 712 342 712 b 262 712 214 704 159 692 z m 334 632 b 479 632 543 520 543 395 b 543 202 427 70 253 70 b 213 70 179 75 148 83 l 242 622 b 269 628 299 632 334 632 z"},"^":{"x_min":0,"x_max":600,"ha":600,"o":"m 536 568 l 382 740 l 340 740 l 124 572 l 173 510 l 352 656 l 473 510 z"},"0":{"x_min":0,"x_max":600,"ha":600,"o":"m 271 70 b 193 70 153 132 153 244 b 153 447 222 630 349 630 b 427 630 467 568 467 456 b 467 253 398 70 271 70 z m 261 -12 b 470 -12 564 225 564 450 b 564 611 492 712 359 712 b 150 712 56 475 56 250 b 56 89 128 -12 261 -12 z"},"F":{"x_min":0,"x_max":507,"ha":507,"o":"m 42 0 l 137 0 l 194 326 l 456 326 l 470 404 l 208 404 l 245 618 l 561 618 l 575 700 l 165 700 z"},"`":{"x_min":0,"x_max":309,"ha":309,"o":"m 269 630 l 92 760 l 40 684 l 233 575 z"},"k":{"x_min":0,"x_max":543,"ha":543,"o":"m 37 0 l 127 0 l 172 259 b 200 418 295 462 351 462 b 402 462 434 429 434 388 b 434 330 389 290 302 290 b 263 290 232 297 212 306 l 203 277 l 326 65 b 359 8 399 -5 461 -5 l 492 65 b 443 65 418 80 395 115 l 310 245 b 319 244 325 244 332 244 b 441 244 521 292 521 398 b 521 472 459 532 373 532 b 300 532 239 494 203 433 l 257 740 l 167 740 z"},"u":{"x_min":0,"x_max":579,"ha":579,"o":"m 194 -12 b 274 -12 337 31 385 113 l 385 104 b 385 29 424 -5 496 -5 l 527 65 b 492 65 469 79 469 116 b 469 125 470 134 471 141 l 537 520 l 447 520 l 402 265 b 380 141 299 68 224 68 b 177 68 137 97 137 157 b 137 169 138 178 140 191 l 198 520 l 108 520 l 51 189 b 48 169 47 151 47 134 b 47 44 114 -12 194 -12 z"},"]":{"x_min":0,"x_max":300,"ha":300,"o":"m 265 740 l 91 740 l 77 665 l 171 665 l 49 -25 l -43 -25 l -57 -100 l 116 -100 z"},"U":{"x_min":0,"x_max":681,"ha":681,"o":"m 618 70 b 581 70 559 85 559 121 b 559 130 560 139 561 146 l 659 700 l 564 700 l 495 312 b 468 158 368 71 276 71 b 203 71 157 116 157 188 b 157 208 158 222 162 246 l 239 700 l 144 700 l 70 267 b 65 235 62 211 62 181 b 62 56 147 -12 249 -12 b 347 -12 418 42 472 126 l 472 104 b 472 29 511 -5 585 -5 z"},"o":{"x_min":0,"x_max":601,"ha":601,"o":"m 281 68 b 185 68 129 140 129 231 b 129 355 202 452 320 452 b 416 452 472 380 472 289 b 472 165 400 68 281 68 z m 278 -12 b 452 -12 564 124 564 297 b 564 434 471 532 323 532 b 149 532 37 396 37 223 b 37 86 130 -12 278 -12 z"},"N":{"x_min":0,"x_max":702,"ha":702,"o":"m 443 0 l 567 0 l 690 700 l 600 700 l 496 112 l 291 700 l 165 700 l 42 0 l 132 0 l 234 584 z"},"+":{"x_min":0,"x_max":600,"ha":600,"o":"m 494 304 l 507 382 l 355 382 l 384 545 l 299 545 l 270 382 l 117 382 l 104 304 l 257 304 l 228 142 l 313 142 l 342 304 z"},"G":{"x_min":0,"x_max":662,"ha":662,"o":"m 410 629 b 475 629 520 607 568 574 l 618 650 b 563 686 500 712 415 712 b 198 712 47 524 47 270 b 47 93 150 -12 288 -12 b 381 -12 446 38 487 102 b 487 29 524 -5 597 -5 l 630 70 b 593 70 571 85 571 121 b 571 130 572 139 573 146 l 612 371 l 377 371 l 364 296 l 510 296 l 501 247 b 482 146 406 71 314 71 b 208 71 145 157 145 283 b 145 487 259 629 410 629 z"},"q":{"x_min":0,"x_max":577,"ha":577,"o":"m 227 -12 b 294 -12 346 31 383 88 l 329 -220 l 419 -220 l 545 496 b 506 512 447 532 368 532 b 177 532 37 398 37 205 b 37 71 127 -12 227 -12 z m 250 68 b 188 68 129 120 129 216 b 129 354 219 456 358 456 b 395 456 421 451 445 443 l 414 267 b 393 148 325 68 250 68 z"},"d":{"x_min":0,"x_max":607,"ha":607,"o":"m 550 65 b 515 65 492 79 492 116 b 492 125 493 134 494 141 l 600 740 l 510 740 l 457 442 b 429 493 377 532 306 532 b 179 532 42 409 42 205 b 42 71 132 -12 233 -12 b 310 -12 369 41 408 105 b 408 29 447 -5 519 -5 z m 257 68 b 194 68 134 120 134 218 b 134 365 221 454 314 454 b 368 454 416 421 443 365 l 425 262 b 404 144 332 68 257 68 z"},"1":{"x_min":0,"x_max":600,"ha":600,"o":"m 111 80 l 97 0 l 449 0 l 463 80 l 344 80 l 453 700 l 387 700 l 153 551 l 194 479 l 343 583 l 254 80 z"},"5":{"x_min":0,"x_max":600,"ha":600,"o":"m 41 45 b 85 10 155 -12 235 -12 b 396 -12 505 86 505 229 b 505 337 425 429 261 429 l 242 429 l 275 619 l 535 619 l 549 700 l 204 700 l 143 348 l 242 348 b 350 348 408 293 408 216 b 408 125 336 70 240 70 b 181 70 131 90 95 122 z"}}}
